<?xml version="1.0" encoding="UTF-8"?><svg id="Layer_1" xmlns="http://www.w3.org/2000/svg" width="1323.44" height="1538.48" viewBox="0 0 1323.44 1538.48"><defs><style>.cls-1{fill:#dbba9b;}.cls-1,.cls-2,.cls-3{stroke-width:5px;}.cls-1,.cls-2,.cls-3,.cls-4,.cls-5{stroke-miterlimit:10;}.cls-1,.cls-3,.cls-5{stroke:#7c736a;}.cls-2{fill:#c1a880;stroke:#756b63;}.cls-3,.cls-4,.cls-5{fill:none;}.cls-4{stroke:#72695f;stroke-width:4px;}.cls-5{stroke-width:7px;}.cls-6{fill:#72695f;}.cls-6,.cls-7{stroke-width:0px;}.cls-7{fill:#ddc8b1;}</style></defs><path class="cls-2" d="m497.68,1262.75c-18.67,14.13,2.68,53.77-22.89,87.76-11.2,14.9-17.46,10.15-42.03,32.34-21.34,19.26-38.81,35.04-41.28,56.32-3.95,34.18,32.65,66.58,57.47,80.24,27.87,15.34,81.58,29.45,108.88-3.42,18.52-22.3,18.56-58.59,11.15-82.39-7.4-23.78-18.71-23.74-21.48-42.35-5.44-36.54,35.6-53.96,31.25-84.02-4.73-32.69-60.23-60.26-81.08-44.48Z"/><path class="cls-1" d="m271.55,736.14c-68.93-18.4-115.7-51.21-148.64-74.32-37.54-26.33-98.42-70.02-94.82-115.32.88-11.04,7.69-48.69,7.69-48.69,0,0-17.64-41.84-20.5-46.13-30.61-45.83-3.69-147.39,53.82-207.58,54.39-56.92,126.64-66.87,143.51-69.19,36.67-5.05,102.52-5.13,102.51-5.13,0,0,28.83-38.45,30.75-41,23.08-30.62,71.31-66.48,120.45-89.69C564.87-7.47,655.52,2.31,684.14,5.78c28.26,3.42,115.93,14.04,153.76,58.94.56.66,12.33,14.96,35.88,43.57.91.29,72.75,5.91,115.32,48.69,18.53,18.62,38.44,51.25,38.44,51.25,0,0,69.87,13.37,79.44,15.38,69.25,14.5,189.87,105.72,210.14,243.46,3.41,23.18,16.47,111.6-38.44,187.08-70.57,97.01-198.05,99.21-240.89,99.94-130.43,2.25-139.56-59.68-269.08-79.44-210.02-32.05-297.68,114.76-497.16,61.5Z"/><path class="cls-6" d="m366.36,709.39s-49.89-20.77-102.51-39.21c-52.24-18.3-54.59-15.89-66.63-25.2-21.14-16.36-49.45-51.31-46.13-89.62,4.92-56.83,76.64-88.57,115.32-98.02,10.38-2.54,23.26-3.35,23.26-3.35,10.73-1.21,22.01-2.49,35.68-2.31,20.57.27,22.95,3.51,38.44,2.56,12.25-.75,21.22-3.41,28.67-5.68,27.68-8.41,70.02-21.35,122.52-37.89,40.07,28.59,75.41,40.5,99.94,46.13,53.98,12.37,117,8.86,207.58,2.56,12.86-.89,38.1-2.88,69.19,5.13,18.75,4.83,40.04,10.14,61.5,26.45,15.54,11.81,18.51,19.72,33.31,24.81,14.97,5.14,24.6,1.4,43.57,0,0,0,33.29-2.46,69.19,7.69,18.57,5.25,48.66,13.76,69.19,41,22.2,29.46,25.07,70,12.81,102.51-15.69,41.63-52,59.05-64.07,64.84-57.99,27.82-115.23,4.44-125.57,0h0c-11.16,25.11-6.42,48.78-4.67,63.59,0,0,2.68,22.76-2.56,58.94-11.89,82.02-552.61,186.47-635.55,10.25-13.37-28.41-20.41-75.93,17.49-155.19Z"/><path class="cls-7" d="m406.58,694.19s-43.69-18.27-89.78-34.5c-45.75-16.1-47.81-13.98-58.36-22.18-18.51-14.39-43.31-45.15-40.4-78.85,4.31-50,67.12-77.93,101-86.24,34.37-8.44,33.58,4.63,85.29-2.46,0,0,30.31-4.16,109.98-29.57h0s50.52,28.83,89.78,41.89c51.6,17.16,104.33,10.48,206.49-2.46,8.08-1.02,25.06-3.3,47.13,0,29.93,4.47,53.47,16.84,62.85,22.18,29.59,16.85,31.45,28.18,53.87,34.5,16.8,4.73,25.56,1.12,44.89,0,19.61-1.14,79.65-4.63,107.74,29.57,19.36,23.57,23.94,63.46,11.22,93.63-15.81,37.53-53.49,48.31-74.07,54.21-51.37,14.71-109.98,0-109.98,0h0s16.39,84.3,8.98,115.81c-29.1,123.62-585.7,118.88-608.25,0-8.42-44.35,51.62-135.53,51.62-135.52h0Z"/><path class="cls-6" d="m430.76,873.69c-16.21,11.4-9.46,19.87-34,51-7.11,9.02-12.62,14.58-18,26-3.63,7.7-4.02,11.31-9,20-6.07,10.59-8.29,10.11-12,18-3.98,8.46-2.23,10.71-6,25-3.64,13.8-6.02,14.52-8.16,23.94-2.62,11.55,1,17.07.09,31.08-2.88,44.27-9.9,56.23,2.41,89.8,37.99,103.6,138.18,149.39,166.93,162.53,120.37,55.01,315.98,63.65,411.39-54.49,45.77-56.68,69.59-143.91,55.01-216.32-3.24-16.09-6.51-22.19-12.83-40.62,8.28,5.35,18.27,10.89,21.15,8.09,3.02-2.93-3.43-13.34-9-24-5.82-11.12-13.88-35.42-30-84-10.08-30.37-11.2-36.66-19.44-42.22-15.8-10.66-41.91-7.76-46.1-7.49-22.22,1.44-23.67,13.91-44.88,14.55-25.66.77-30.55-13.68-50.46-9.46-17.15,3.63-16.66,15.01-33.18,17.46-19.68,2.91-25.3-12.51-44.75-9.88-19.02,2.58-21.26,18.38-36.99,17.73-16.54-.68-19.72-18.22-35.77-18.05-14.48.15-16.49,14.47-31.41,15.45-17.52,1.14-21.55-18.16-41.62-19.5-16-1.07-20.28,13.98-39.3,12.27-5.52-.5-8.27-1.95-19.1-2.84-8.89-.73-11.88-.15-17-2-7.58-2.74-9.51-7.07-14-10-11.59-7.57-32.02-.42-44,8Z"/><path class="cls-2" d="m474.26,885.19c-21.96-.6-41.88,17.82-63,50-62.59,95.36-111.38,169.71-83.44,258,31.99,101.07,142.56,150.88,171.86,164.08,1.54.69,2.66,1.18,3.31,1.47,137.99,60.99,369.11,19.69,432.74-56.56,20.02-23.99,34.59-51.92,34.59-51.92,3.59-6.89,14.63-28.72,23.06-58.94,2.32-8.31,5.54-20.02,7.69-35.88,1.99-14.68,2.26-26.97,2.56-41,.27-12.49.31-18.74,0-23.06-.57-7.9-1.65-14.29-6.38-36.18-3.53-16.34-5.3-24.51-6-27-1.82-6.51-7.52-25.62-20-48-7.85-14.07-14.99-23.38-24-35-25.56-32.98-53.47-59.5-53-59h0c-4.11.1-7.5.55-10,1-2.36.42-5.57,1.28-12,3h0c-1.67.76-7.79,3.56-11,5-11.24,5.03-16.85,7.55-20,8-4.31.62-6.24-.19-20-4-17.19-4.76-25.84-7.12-28.2-6.58-9.26,2.13-10.66,7.9-26.17,15.33-2.38,1.14-5.19,2.04-8.76,2.56-20.7,3.02-26.58-12.72-47.03-9.99-20.01,2.67-22.4,18.81-38.94,18.19-17.39-.66-20.7-18.56-37.58-18.35-15.23.19-17.37,14.81-33.07,15.84-18.43,1.21-22.62-18.49-43.73-19.82-18.32-1.15-26.13,16.51-41.36,12.61-8.53-2.19-14.02-9.47-17.17-14.8-5.56-3.92-14.24-8.71-25-9Z"/><path class="cls-6" d="m247.2,732.3h0s107.63,20.5,107.63,20.5h0s52.79-46.79,46.13-58.94c-9.94-18.14-153.61,38.39-153.76,38.44Z"/><path class="cls-6" d="m981.58,732.12c-4.35,4.17-.6,12.19,5.63,17.05,25.09,19.62,153.35-3.96,115.35,0h0s-106.25-31.18-120.98-17.05Z"/><path class="cls-6" d="m553.75,648.95c-1.85,5.7-5.13,15.82.09,25.63,5.4,10.13,17.76,15.96,27.73,14.25,19.56-3.34,32.21-36.06,21.33-54.41-4.19-7.07-12.77-13.52-22.09-13.25-17.86.51-26.27,25.34-27.06,27.77Z"/><path class="cls-6" d="m733.18,642.13c-3.82,14.38,3.93,27.55,6.96,32.71,3.88,6.6,8.6,14.61,15.82,16.12,11.92,2.49,25.74-13.8,27.29-30.73,1.5-16.32-7.93-38.54-22.48-41.21-12.55-2.31-24.31,10.78-27.59,23.11Z"/><path class="cls-4" d="m288.59,655.42c4.84-3.93,12.25-9.03,22.22-12.81,11-4.17,20.72-5.06,27.16-5.13"/><path class="cls-4" d="m204.65,627.23c20.81-17.75,40.6-27.69,54.32-33.31,15.17-6.22,32.81-13.45,56.79-12.81,19.34.51,34.76,5.92,44.44,10.25"/><path class="cls-4" d="m163.91,533.69c23.97-1.75,49.52-3.48,76.54-5.13,49.16-3,61.09-3.16,76.54,0,17.62,3.6,42.16,11.99,69.13,33.31"/><path class="cls-4" d="m312.05,451.68c32.93,11.15,58.58,24.83,76.54,35.88,23.69,14.57,45.59,28.04,66.66,53.82,21.02,25.7,31.57,51.85,37.03,69.19"/><path class="cls-4" d="m462.65,438.87c11.04,13.15,23.04,29.32,34.57,48.69,15.07,25.34,25.19,49.24,32.1,69.19"/><path class="cls-4" d="m571.29,464.5c5.05,9.2,12.27,25.05,14.81,46.13,2.9,24.01-1.66,43.33-4.94,53.82"/><path class="cls-4" d="m642.88,482.44c-1.21,18.43-2.06,37.62-2.47,57.49-.37,18.15-.35,35.73,0,52.7"/><path class="cls-4" d="m684.86,567c3.52-12.35,8.9-27.38,17.28-43.57,8.93-17.23,18.72-30.83,27.16-41"/><path class="cls-4" d="m730.45,608.79c9.1-21.06,23-46.72,44.68-74.33,23.08-29.39,48.39-52.6,70.21-69.96"/><path class="cls-4" d="m809.46,593.41c10.66-14.7,26.95-32.61,52.36-51.89,27.05-20.52,56.71-36.72,82.28-48.84"/><path class="cls-4" d="m876.02,598.73c11.84-9.87,29.93-21.89,58.16-34.83,30.04-13.77,62.99-24.65,91.39-32.78"/><path class="cls-4" d="m944.09,623.38c22.54-12.89,58.33-29.69,104.93-37.16,55.13-8.84,100.49-.63,127.15,6.41"/><path class="cls-4" d="m991.83,640.86c17.47-3.31,44.03-5.86,73.98,1.49,35.43,8.7,59.61,27.32,73.11,39.91"/><path class="cls-4" d="m995.88,673.12c6.47,3.35,15.44,9.17,21.98,18.78,7.74,11.36,8.58,22.87,8.29,29.95"/><path class="cls-3" d="m482.97,360.71c17.48-8.71,43.7-18.34,74.32-15.38,32.78,3.18,50.41,18.84,76.88,30.75,27.1,12.2,68.82,22.89,130.7,12.81"/><path class="cls-3" d="m662.36,332.52c10.21,4.96,26.03,11.06,46.13,12.81,32.29,2.82,57.41-7.17,69.19-12.81"/><path class="cls-3" d="m1095.45,353.02c4.68,1.02,27.27,6.48,41,28.19,18.77,29.68,3.52,62.11,2.56,64.07"/><path class="cls-3" d="m1103.14,291.52c6.71,1.41,49.88,11.21,74.32,53.82,23.17,40.39,12.27,80.21,10.25,87.13"/><path class="cls-3" d="m564.97,94.19c10.83-6.93,33.38-19.2,64.07-20.5,49.81-2.12,84.12,26.21,92.26,33.31"/><path class="cls-3" d="m646.98,150.57c5.55-2.99,16.46-7.84,30.75-7.69,23.74.26,39.53,14.16,43.57,17.94"/><path class="cls-3" d="m129.32,301.77c7.85-11.36,25.51-33.58,56.38-48.69,39.61-19.39,76.38-15.05,89.69-12.81"/><path class="cls-3" d="m211.32,312.02c5.12-6.8,16.54-20.01,35.88-28.19,28.38-12.01,54.14-4.89,61.5-2.56"/><path class="cls-1" d="m34.5,496.53c3.3-11.31,9.8-28.47,23.06-46.13,15.34-20.42,32.77-32.25,43.57-38.44"/><path class="cls-5" d="m526.53,437.59c-6.8-8.87-21.54-25.51-46.13-35.88-37.97-16.01-72.53-5.73-82.01-2.56"/><path class="cls-6" d="m572.76,743.69c6.26-4.47,14.7,4.61,33,10,9.37,2.76,13.62,2.29,61,1,36.74-1,35.23-.74,37-1,40-5.77,57.12-26.64,65-20,9.46,7.97-8.73,43.59-12,50-5.08,9.95-14.52,25.43-31,40-9.53,8.43-17.56,15.53-30,20-32.23,11.57-63.56-5.5-70-9-13.34-7.26-22.56-18.18-41-40-6.02-7.13-12.59-15.6-15-28-.74-3.79-3.56-18.32,3-23Z"/><path class="cls-2" d="m872.76,940.69c4.89-9.14,12.53-7.22,58-22,24.57-7.99,46.38-17.32,90-36,46.7-20,53.84-25.41,58-35,6.48-14.96,6.15-41.14,6-53-.17-13.69-1.58-24.51,5-29,4.7-3.21,12.49-2.52,17,1,2.9,2.26,4.26,6.17,7,14,2.12,6.07,1.85,7.02,3,10,2.79,7.2,7.25,8.98,16,17,13.91,12.76,13.2,17.96,20,19,5.32.82,5.82-2.37,18-4,7.21-.97,14.25-1.83,17,2,1.77,2.45,1.42,6.35,0,9-3.03,5.65-10.69,5.14-11,8-.26,2.43,4.95,5.34,10,7,13.87,4.57,18-3.06,30,1,11.24,3.8,18.86,14.3,19.15,14.74,0,0,.85,1.26.85,1.26h0c3.93,7.26,4,9,4,9,.17,4.26-3.02,5.8-2,8,.98,2.11,4.08,1.06,9,3,.7.28,7.43,3.04,11,10,1.57,3.06,2.55,4.98,2,7-1.47,5.36-12.09,5.07-35,10-4.66,1-1.65.46-21,5-13.92,3.27-20.89,4.9-22,5-18.27,1.65-23.71-6.87-37-4-9.73,2.1-15.7,8.6-20,13-32.54,33.29-51.75,30.65-117,92-28.71,26.99-29.12,31.39-39,33-47.84,7.81-114.87-82.64-97-116Z"/><path class="cls-2" d="m479.76,947.69c-7-13.62-22.88-7.11-83-25-52.94-15.75-45.63-22.29-95-36-39.84-11.06-58.59-10.69-69-28-2.29-3.8-.94-3.09-16-43-5.69-15.08-9.11-23.73-17-26-5.79-1.67-13.74.17-17,5-3.85,5.69,1.51,11.52-2,23-.72,2.37-.82,1.69-5,10-8.09,16.09-8,19.18-12,22-1.93,1.36-3.47,1.72-18,2-19.08.37-24.51-.08-32,3-2.78,1.14-11.01,4.52-11,9,0,5.78,13.73,9.29,13,12-.42,1.58-5.2.74-13,2-7.75,1.25-15.9,2.57-19,8-2.87,5.03.93,9.52-3,14-2.24,2.55-4.34,2.09-6,5-1.56,2.74-.18,3.98-1,9-.66,4.01-2.19,7.22-4,11-2.06,4.32-2.95,4.92-3,7-.1,4.29,3.55,7.6,4,8,7.88,6.96,22.82-6.14,46-6,12.08.07,10.18,3.64,25,5,26.07,2.39,32.98-8.58,50-5,13.78,2.9,15.97,11.51,35,27,18.99,15.45,33.04,20.09,51,29,67.72,33.59,72.59,69.14,106,71,52.69,2.94,112.21-81.48,96-113Z"/><path class="cls-2" d="m758.26,1300.19c1.18,15.54,14.67,20.59,26,35,24.48,31.13,1.89,58.94,20,90,16.95,29.07,57.63,40.53,87,39,43.73-2.29,71.04-33.85,98-65,22.45-25.95,60.17-69.54,60-133-.05-17.69-.21-77.18-46-110-3.23-2.31-39.71-27.6-84-17-39.88,9.54-66.98,43.6-76,67-2.06,5.34-8.22,23.2-19,48-2.14,4.92-1.01,2.17-7.11,15.79-15.41,34.41-17.36,40.18-20.89,40.21-9.12.07-10.92-38.21-22-39-7.16-.51-17.08,14.71-16,29Z"/></svg>