<?xml version="1.0" encoding="UTF-8"?><svg id="Layer_1" xmlns="http://www.w3.org/2000/svg" width="1320.89" height="1550.17" viewBox="0 0 1320.89 1550.17"><defs><style>.cls-1{fill:#dbba9b;}.cls-1,.cls-2,.cls-3{stroke-width:5px;}.cls-1,.cls-2,.cls-3,.cls-4,.cls-5{stroke-miterlimit:10;}.cls-1,.cls-3,.cls-5{stroke:#7c736a;}.cls-2{fill:#c1a880;stroke:#756b63;}.cls-3,.cls-4,.cls-5{fill:none;}.cls-4{stroke:#72695f;stroke-width:4px;}.cls-5{stroke-width:7px;}.cls-6{fill:#72695f;}.cls-6,.cls-7{stroke-width:0px;}.cls-7{fill:#ddc8b1;}</style></defs><path class="cls-2" d="m508.64,1031.64c-5.06-7.4-28.9-.85-44,6-13.41,6.08-12.36,8.98-35,21-13.74,7.3-20.76,10.97-28,12-12.35,1.76-20.8-1.45-25,4-3.22,4.18-1.64,10.44-1,13,2.3,9.12,9.89,13.72,12,15,5.16,3.12,11.59,2.98,24,3,12.71.02,18.23-1.05,19,1,.93,2.46-6.48,5.53-14,16-3.83,5.34-6.67,9.29-6,14,.91,6.4,7.88,11.36,14,13,9.98,2.67,19.09-3.14,33-12,10.68-6.8,16.54-10.54,22-18,4.45-6.08,3.85-8.09,12-33,6.06-18.52,9.09-27.78,11-33,5.92-16.2,7.91-19.21,6-22Z"/><path class="cls-6" d="m476.77,898.58c-8.58,20.21,13.28,35.56,4.64,60.4-3.25,9.34-7.82,13.25-12.81,29.26-1.6,5.15-2.83,11.22-3.51,19.44-3.2,38.22,8.11,35.93,11.01,85.84,2.57,44.22-2.44,56.78,12.76,88.91,46.89,99.16,143.82,134.92,171.63,145.19,116.45,42.97,296.2,32.62,369.5-93.89,35.16-60.69,46.67-149.58,24.84-220.05-4.85-15.66-8.55-21.39-16.5-39.08,0,0-8.03-15.3-19.34-47.62-18.51-52.93,14.08-112.01,3.79-115.09-6.05-1.81-12.94,19.95-35.23,25.24-17.22,4.09-23.11-6.52-43-2.98-20.13,3.58-19.99,16.1-39.29,18.79-23.36,3.25-29.52-10.62-47.22-4.51-15.25,5.26-13.46,16.51-28.27,20.54-17.64,4.79-24.59-9.98-42.05-5.48-17.08,4.4-17.26,20.3-31.71,21.18-15.19.92-20.16-16.18-34.81-14.46-13.21,1.55-13.36,15.96-26.89,18.37-15.88,2.83-21.82-15.94-40.32-15.33-15.7.51-17.43,13.23-34.47,15.98-21.41,3.45-27.16-15.57-56.55-19.63-5.12-.71-9.35-.74-13.1-.36-10.19,1.02-26.74.4-42.94,7.14-13.46,5.59-25.15,10.46-30.15,22.23Z"/><path class="cls-1" d="m360.91,825.64c-71.33,1.45-125.36-17.1-163.42-30.16-43.37-14.88-113.98-39.96-123.09-84.48-2.22-10.85-6.12-48.91-6.12-48.91,0,0-28.55-35.3-32.5-38.63-42.12-35.54-44.45-140.58-5.89-214.36,36.46-69.77,103.11-99.38,118.68-106.29,33.83-15.03,97.07-33.37,97.06-33.37,0,0,17.03-44.94,18.17-47.93,13.68-35.82,50.06-83.66,90.83-119.59C436.39,29.83,526.2,14.08,554.66,9.47c28.1-4.55,115.27-18.68,164.08,13.96.72.48,16,10.95,46.56,31.9.96.02,71.54-14.51,124.3,14.78,22.97,12.75,51.15,38.57,51.15,38.58,0,0,70.84-6.54,80.59-7.27,70.55-5.28,211.75,48.89,269.44,175.59,9.71,21.32,46.79,102.65,14.98,190.4-40.88,112.78-162.75,150.26-203.7,162.86-124.69,38.35-150.64-18.61-280.56-1.66-210.67,27.48-254.15,192.85-460.58,197.03Z"/><path class="cls-6" d="m444.58,773.62s-53.69-6.11-109.36-9.23c-55.26-3.09-56.85-.12-71.01-5.73-24.85-9.85-61.74-35.58-69.18-73.3-11.04-55.97,49.06-106.36,83.6-126.17,9.27-5.32,21.42-9.67,21.42-9.67,9.97-4.14,20.46-8.5,33.64-12.12,19.83-5.45,23.02-3,37.64-8.2,11.56-4.12,19.44-9.17,25.97-13.41,24.26-15.76,61.35-39.94,107.2-70.39,46.43,16.35,83.69,17.99,108.82,16.59,55.3-3.09,114.86-23.95,200.14-55.13,12.1-4.43,35.81-13.34,67.9-14.27,19.35-.57,41.28-1.37,66.43,8.34,18.21,7.03,23.26,13.81,38.89,14.59,15.81.79,24.03-5.48,41.86-12.09,0,0,31.3-11.6,68.61-11.81,19.3-.11,50.57-.28,77.85,20.19,29.51,22.14,43.5,60.29,40.75,94.93-3.52,44.35-33.57,71.16-43.56,80.07-48,42.82-109.47,36.24-120.64,34.84h0c-3.75,27.22,7.37,48.65,13.15,62.39,0,0,8.89,21.12,13.89,57.34,11.33,82.1-479.17,332.48-607.75,186.19-20.73-23.58-40.67-67.29-26.26-153.94Z"/><path class="cls-2" d="m646.72,1129.9c-23.08,21.49-10.54,103.72,5.73,153.65,17.99,55.21,47.92,93.6,38.29,108.84-5.38,8.51-16.63-.41-41.84,11.82-20.44,9.92-24.42,21.3-25.28,24.02-2.41,7.6-3.24,19.34,1.05,28.17,9.68,19.91,40.73,15.2,74.87,10.03,32.89-4.99,50.13-7.92,59.46-25.3,8.29-15.45,5.6-33.5,4.22-48.88-7.84-87.19,24.22-111.94,14.09-162.09-14.64-72.45-102.83-126.1-130.58-100.27Z"/><path class="cls-2" d="m897.63,1190.82c24.62,19.71,18.24,102.65,5.73,153.65-13.83,56.39-40.81,96.91-30.07,111.39,6,8.09,16.55-1.65,42.6,8.67,21.12,8.37,25.94,19.42,27,22.07,2.96,7.4,4.67,19.05,1.05,28.17-8.17,20.58-39.49,18.2-73.92,15.58-33.17-2.52-50.59-4.17-61.18-20.8-9.42-14.79-8.08-32.99-7.85-48.43,1.32-87.53-32.49-109.83-26.12-160.59,9.2-73.34,93.15-133.41,122.75-109.72Z"/><path class="cls-7" d="m479,747.86s-47.05-5.43-95.83-8.23c-48.42-2.78-49.81-.16-62.22-5.11-21.78-8.69-54.13-31.36-60.69-64.54-9.73-49.24,42.87-93.49,73.11-110.88,30.68-17.64,33.55-4.87,81.26-26.03,0,0,27.97-12.4,97.46-58.92h0s56.54,13.68,97.88,15.33c54.33,2.17,103.14-18.88,197.7-59.66,7.48-3.23,23.16-10.12,45.28-13.08,30-4.01,56.04,1.34,66.53,3.87,33.11,7.97,38.04,18.35,61.32,18.2,17.46-.11,24.87-6.01,43.13-12.46,18.52-6.54,75.24-26.55,111.71-1.48,25.14,17.28,40.6,54.32,36.76,86.84-4.78,40.44-37.98,61.26-56.12,72.63-45.27,28.39-105.66,30.52-105.66,30.52h0s39.14,76.44,40.76,108.77c6.35,126.84-529.71,276.72-584.37,168.77-20.39-40.27,11.99-144.53,11.99-144.52h0Z"/><path class="cls-2" d="m500.64,932.64c-10.66,10.95-9.87,27.62-9.58,35.28,4.21,110.88-27.85,129.55-1.65,201.67,37.23,102.44,126.07,145.97,153.88,159.59,1.34.65,2.31,1.12,2.88,1.39,119.79,57.54,312.8,10.78,362.49-66.84,15.63-24.42,26.46-52.64,26.46-52.64,2.67-6.96,10.83-29,16.35-59.37,1.52-8.35,3.61-20.11,4.59-35.98.9-14.7.47-26.96-.01-40.98-.17-4.92-.45-12.69-1.23-23.01-1.13-15-2.63-26.4-4.21-38.29-1.19-8.94-1.97-14.77-3.39-22.95-.75-4.32-2.92-16.39-5.83-28-6.08-24.33-14.67-43.75-17.88-50.71-15.22-33.06-35.73-60.44-35.74-60.45,0,0-16.44-4.88-33.51-3.31-2.71.25-6.89.65-12.08,2.04-17.36,4.64-19.69,13.24-30.49,16.66-19.97,6.31-29.22-12.71-45.31-8.25-15.04,4.17-14.01,15.75-28.55,18.7-17.33,3.51-23.13-12.05-40.26-8.83-7.54,1.42-10.63,3.86-31.92,19.08-17.41,12.45-22.25,14.9-25.01,16.21-2.81,1.33-11.66,5.38-24,8-16.52,3.51-21.31.64-38,2-21.31,1.73-23.07,7.18-44,10-9.5,1.28-23.8,2.13-42-1-8.88-1.13-22.03-2.33-38-2-26.08.54-43.41,1.12-54,12Z"/><path class="cls-6" d="m336.45,828.7h0s109.1-10.17,109.1-10.17h0s37.73-59.6,27.96-69.43c-14.58-14.67-136.93,79.51-137.06,79.59Z"/><path class="cls-6" d="m1041.95,624.77c-3.03,5.22,2.81,11.87,10.14,14.82,29.55,11.89,146.23-46.36,110.83-32.01h0s-110.73-.47-120.96,17.18Z"/><path class="cls-6" d="m616.06,689.02c2.51,5.44,6.97,15.1,17.46,18.75,10.84,3.77,23.87-.34,30.03-8.36,12.09-15.73-.82-48.34-21.27-54.43-7.87-2.34-18.55-1.26-25.21,5.27-12.76,12.5-2.09,36.44-1.02,38.77Z"/><path class="cls-6" d="m812.37,621.36c-.07,14.88,10.76,25.67,15,29.89,5.42,5.41,12.01,11.97,19.37,11.6,12.16-.6,21.42-19.86,18.65-36.63-2.67-16.17-17.41-35.29-32.16-34.2-12.73.94-20.8,16.57-20.86,29.33Z"/><path class="cls-4" d="m354.89,743.35c3.56-5.11,9.27-12.08,17.79-18.48,9.41-7.06,18.5-10.61,24.67-12.46"/><path class="cls-4" d="m266.42,739.56c15.07-22.83,31.32-37.87,42.94-47.08,12.85-10.18,27.79-22.02,51-28.07,18.72-4.88,35.04-3.95,45.54-2.48"/><path class="cls-4" d="m201.33,661c22.54-8.33,46.61-17.08,72.11-26.16,46.4-16.52,57.81-19.98,73.53-21.24,17.93-1.43,43.84-.18,75.66,12.83"/><path class="cls-4" d="m320.9,541.11c34.73,1.57,63.17,7.6,83.49,13.23,26.8,7.43,51.58,14.29,78.98,33.21,27.32,18.86,44.71,41.05,54.78,56.2"/><path class="cls-4" d="m462.03,487.01c14.26,9.57,30.27,21.77,46.72,37.19,21.5,20.16,37.87,40.32,50.03,57.57"/><path class="cls-4" d="m573.51,481.49c7.41,7.44,18.74,20.66,27.03,40.21,9.45,22.27,10.42,42.09,10.19,53.07"/><path class="cls-4" d="m647.28,478.86c3.96,18.05,8.46,36.71,13.58,55.92,4.68,17.54,9.58,34.43,14.62,50.63"/><path class="cls-4" d="m711.07,548.46c-.04-12.84.95-28.78,4.52-46.65,3.8-19.03,9.43-34.81,14.72-46.93"/><path class="cls-4" d="m766.46,575.95c2.9-22.76,9.13-51.27,22.3-83.81,14.02-34.64,31.89-63.96,48.04-86.69"/><path class="cls-4" d="m838.1,539.26c6.17-17.09,16.84-38.81,35.91-64.38,20.29-27.22,44.29-51.01,65.5-69.75"/><path class="cls-4" d="m903.53,525.9c8.64-12.77,22.68-29.34,46.21-49.6,25.04-21.57,53.68-41.16,78.71-56.85"/><path class="cls-4" d="m975.77,530.7c18.08-18.64,47.8-44.71,90.5-64.81,50.51-23.79,96.37-28.49,123.94-29.12"/><path class="cls-4" d="m1026.48,534.25c15.86-8.03,40.68-17.85,71.49-19.09,36.45-1.47,64.85,9.71,81.31,18.06"/><path class="cls-4" d="m1039.32,564.12c7.15,1.42,17.38,4.53,26.33,11.94,10.58,8.77,14.59,19.59,16.27,26.47"/><path class="cls-3" d="m459.86,406.28c14.38-13.22,36.89-29.75,67.13-35.39,32.37-6.04,53.66,4.11,82.39,8.21,29.43,4.2,72.47,2.89,129.12-23.95"/><path class="cls-3" d="m624.39,329.43c11.19,1.94,28.08,3.4,47.87-.49,31.81-6.25,53.16-22.82,62.92-31.51"/><path class="cls-3" d="m1046.16,228.95c4.78-.31,28-1.34,47.21,15.71,26.27,23.3,20.62,58.69,20.24,60.84"/><path class="cls-3" d="m1036.49,167.73c6.83-.51,51.03-3.07,86.33,31.08,33.47,32.38,34.04,73.66,34.02,80.87"/><path class="cls-3" d="m464.7,127.47c8.48-9.66,26.74-27.7,55.86-37.47,47.26-15.86,88.09,1.84,97.88,6.41"/><path class="cls-3" d="m559.13,158.88c4.5-4.41,13.63-12.1,27.41-15.92,22.88-6.34,41.9,2.63,46.83,5.15"/><path class="cls-3" d="m103.74,447.78c4.39-13.09,15.19-39.34,40.66-62.42,32.68-29.62,69.2-35.65,82.62-37.2"/><path class="cls-3" d="m185.37,434.87c3.03-7.95,10.34-23.81,26.65-37.04,23.93-19.42,50.66-19.72,58.38-19.53"/><path class="cls-1" d="m66.69,661.2c.03-11.78,1.52-30.07,9.36-50.72,9.07-23.88,22.53-40.08,31.19-49.02"/><path class="cls-5" d="m523.05,468.06c-9-6.64-27.78-18.53-54.27-21.67-40.92-4.85-71.27,14.62-79.5,20.29"/><path class="cls-6" d="m680.64,758.64h0c28.31-7.88,43-12,43-12,55.55-15.56,50.34-14.59,64-18,23.83-5.95,52-12,52-12h0s8.35,1.42,11,4c7.06,6.87-11.28,36.7-17,46-11.31,18.4-17.19,27.75-28,35-15.26,10.24-30.51,11.58-36,12-26.36,2.01-45.63-10.11-55-16-1.82-1.15-21.2-13.52-28-27-2.01-3.99-8-16-6-12Z"/><path class="cls-2" d="m926.22,929.56c-2.74,14.2,10.12,27.04,21.83,38.41,15.99,15.53,42.15,40.95,71.9,36.08,7.57-1.24,16.94-4.69,30.82-17.46,31.39-28.89,33.84-57.6,51.36-97.78,12.59-28.86,26.48-60.72,59.06-89.63,27.46-24.36,58.82-52.19,92.45-54.71,4.35-.33,16.51-.81,21.83-8.15,5.43-7.49,2.78-20.86-5.14-25.61-6.85-4.11-16.39-1.01-16.69-2.33-.37-1.62,15.03-2.42,21.83-11.64,5.48-7.43,4.66-19.37-1.28-23.28-4.83-3.18-11.16.2-12.84-2.33-2.44-3.66,11.16-10.32,11.56-20.95.34-9.12-9.12-18.88-17.98-19.79-2.37-.24-6.32,1-14.12,3.49-12.98,4.15-14.46,5.64-16.69,4.66-5.74-2.52.53-13.96-6.42-24.44-5.12-7.72-16.41-13.42-25.68-11.64-8.93,1.71-13.59,9.9-20.54,22.12-7.92,13.92-7.79,21.33-17.98,33.76-2.26,2.76-8.58,10.47-11.56,9.31-2.63-1.03-.62-8.2,0-23.28.88-21.36-2.41-24.5-3.85-25.61-5.03-3.84-12.95-2.35-19.26-1.16-2.84.53-14.78,2.78-21.83,10.48-6.66,7.28-4.55,14.63-2.57,43.07,2.26,32.5.87,42.62,0,47.72-1.47,8.65-3.34,19.01-10.27,30.26-8.35,13.55-19.5,20.98-24.4,24.44-24.46,17.29-17.98,23.88-73.19,84.97-15.25,16.88-27.36,36.32-44.94,51.22-6.7,5.68-13.7,10.91-15.41,19.79Z"/><path class="cls-2" d="m800.1,1474.14c5.34-24.69,34.96-35.27,48.19-40,26.63-9.51,49.2-5.27,60.48-3,15.28,3.08,27.87,5.61,38.74,17,1.45,1.52,20.12,21.25,16.06,44-4.38,24.55-32.13,35.46-53.86,44-20.94,8.23-46.95,18.46-72.76,5-24.56-12.81-33.35-38.93-34.02-41-2.23-6.97-5.05-15.75-2.83-26Z"/></svg>