<?xml version="1.0" encoding="utf-8"?>
<!-- Generator: Adobe Illustrator 28.0.0, SVG Export Plug-In . SVG Version: 6.00 Build 0)  -->
<svg version="1.1" id="Layer_2_00000108275185258682694260000009054805854970532758_"
	 xmlns="http://www.w3.org/2000/svg" xmlns:xlink="http://www.w3.org/1999/xlink" x="0px" y="0px" viewBox="0 0 214.5 185"
	 style="enable-background:new 0 0 214.5 185;" xml:space="preserve">
<style type="text/css">
	.st0{opacity:0.3;fill:#EAE7D5;enable-background:new    ;}
</style>
<g id="Layer_2-2">
	<path class="st0" d="M150.8,98.4c-16.7,6.3-19.4,17.7-32.3,20.5c-5.3,1.2-8,1.2-11,1.4c-3.3,0.2-21.8-5.7-32.7,7.4
		c-10,12-31.8,8.4-31.8,15.2c0,5,44.3,0.8,44.3,11.4c0,11.2-13.8,16.1-11.8,20.3c3.5,7.3,47.3-8.5,47.4-7.3c0.1,1.3-21,9.2-37.8,14
		c-9.6,2.7-32.8,7.9-33.5-1.9c-0.8-9.6,18.1-11.8,11.3-17.9s-42.4,5-47-3.4c-4.4-8.2-9-14.2,6.1-26.4c0,0,14.8-10.5,14.8-10.5
		c4.8-8-10.7-12.7-13.9-12.2c-3.6,0.6-18.1-0.8-22.1-13.9c-3.4-11.1,4.4-30.8,7.4-35.9c7.9-13.8-12.3-31.4-0.3-43.6
		c16.6-17,36.4,5,53.1-2.5S89.4-3,110.2,1c23.3,4.5,30.1,14.8,44.4,22.9c10.9,6.2,34.5,2.9,49.5,19.1c9.4,10.1,13.4,18.8,7.9,39
		C205,108.2,171,90.8,150.8,98.4z"/>
</g>
</svg>
