<svg width="877" height="487" viewBox="0 0 877 487" fill="none" xmlns="http://www.w3.org/2000/svg">
<path opacity="0.8" d="M630.775 186.017C691.084 185.697 740.696 250.991 741.017 305.078C741.154 331.699 793.332 353.517 864.52 353.768C899.656 353.906 855.656 378.811 739.986 372.064C703.682 369.96 700.773 305.513 671.18 278.046C658.651 266.428 607.023 288.566 585.675 295.313C581.552 298.675 578.002 344.872 549.531 371.47C503.057 401.361 480.748 380.092 401.199 396.421C352.961 406.324 314.779 454.854 277.856 469.948C253.531 479.896 198.467 500.731 129.134 470.726C56.5941 439.348 80.965 341.716 45.0958 320.241C-14.3654 284.655 -6.30285 166.212 19.6255 134.994C74.46 68.9455 110.467 77.133 179.273 66.9558C195.535 64.5545 268.213 12.9597 317.71 3.88035C390.25 -9.42999 437.641 14.2862 456.56 32.971C482.397 58.4939 541.034 59.7518 571.337 79.4657C601.274 98.9281 623.835 164.13 622.438 186.452" fill="#EAE7D5"/>
</svg>
