<?xml version="1.0" encoding="utf-8"?>
<!-- Generator: Adobe Illustrator 28.0.0, SVG Export Plug-In . SVG Version: 6.00 Build 0)  -->
<svg version="1.1" id="Layer_1" xmlns="http://www.w3.org/2000/svg" xmlns:xlink="http://www.w3.org/1999/xlink" x="0px" y="0px"
	 viewBox="0 0 877 487" style="enable-background:new 0 0 877 487;" xml:space="preserve">
<style type="text/css">
	.st0{fill:#EAE7D5;}
</style>
<path class="st0" d="M629.5,203.4c60.3-0.3,109.9,65,110.2,119.1c0.1,26.6,52.3,48.4,123.5,48.7c35.1,0.1-8.9,25-124.5,18.3
	c-36.3-2.1-39.2-66.6-68.8-94c-12.5-11.6-64.2,10.5-85.5,17.3c-4.1,3.4-7.7,49.6-36.1,76.2c-46.5,29.9-87.9,22.4-131.6,18.7
	c-65.3-15.3-118,0-159,21c-47,17-110,1-139-27c-36-34-0.3-81.1-60-87c-62-5-66.1-130.9-40.2-162.1c54.8-66,90.8-57.9,159.6-68
	c16.3-2.4,88.9-54,138.4-63.1C388.9,8,436.3,31.7,455.3,50.4c25.8,25.5,84.5,26.8,114.8,46.5c29.9,19.5,52.5,84.7,51.1,107"/>
</svg>
